<mxfile host="a1d8beb7-f849-4095-9517-16b92718ab13" modified="2020-07-29T19:06:31.822Z" agent="5.0 (Macintosh; Intel Mac OS X 10_15_5) AppleWebKit/537.36 (KHTML, like Gecko) Code/1.47.3 Chrome/78.0.3904.130 Electron/7.3.2 Safari/537.36" etag="hgWc6DrfR4kUBT3F1y8G" version="13.1.3" pages="3">
    <diagram id="p9XQ-6MMNXK9vGcJznFA" name="DevOps AWS">
        <mxGraphModel dx="721" dy="837" grid="1" gridSize="10" guides="1" tooltips="1" connect="1" arrows="1" fold="1" page="1" pageScale="1" pageWidth="827" pageHeight="1169" math="0" shadow="0">
            <root>
                <mxCell id="T9_pB08_YmsZ9ejj3nMx-0"/>
                <mxCell id="T9_pB08_YmsZ9ejj3nMx-1" parent="T9_pB08_YmsZ9ejj3nMx-0"/>
                <mxCell id="T9_pB08_YmsZ9ejj3nMx-2" value="AWS Cloud" style="points=[[0,0],[0.25,0],[0.5,0],[0.75,0],[1,0],[1,0.25],[1,0.5],[1,0.75],[1,1],[0.75,1],[0.5,1],[0.25,1],[0,1],[0,0.75],[0,0.5],[0,0.25]];outlineConnect=0;html=1;whiteSpace=wrap;fontSize=12;fontStyle=0;shape=mxgraph.aws4.group;grIcon=mxgraph.aws4.group_aws_cloud_alt;verticalAlign=top;align=left;spacingLeft=30;dashed=0;labelBackgroundColor=none;" parent="T9_pB08_YmsZ9ejj3nMx-1" vertex="1">
                    <mxGeometry x="34" y="200" width="766" height="480" as="geometry"/>
                </mxCell>
                <mxCell id="T9_pB08_YmsZ9ejj3nMx-3" value="git push origin branch_name" style="edgeStyle=orthogonalEdgeStyle;rounded=0;orthogonalLoop=1;jettySize=auto;html=1;entryX=0;entryY=0.5;entryDx=0;entryDy=0;exitX=1;exitY=0.5;exitDx=0;exitDy=0;curved=1;" parent="T9_pB08_YmsZ9ejj3nMx-1" source="T9_pB08_YmsZ9ejj3nMx-19" target="T9_pB08_YmsZ9ejj3nMx-9" edge="1">
                    <mxGeometry x="-0.5631" y="13" relative="1" as="geometry">
                        <mxPoint x="201" y="170" as="sourcePoint"/>
                        <mxPoint x="120.5" y="230" as="targetPoint"/>
                        <mxPoint as="offset"/>
                    </mxGeometry>
                </mxCell>
                <mxCell id="T9_pB08_YmsZ9ejj3nMx-4" value="git pull branch" style="edgeStyle=orthogonalEdgeStyle;rounded=0;orthogonalLoop=1;jettySize=auto;entryX=0.5;entryY=1;entryDx=0;entryDy=0;exitX=0.5;exitY=0;exitDx=0;exitDy=0;align=left;curved=1;labelBackgroundColor=none;" parent="T9_pB08_YmsZ9ejj3nMx-1" source="T9_pB08_YmsZ9ejj3nMx-11" target="T9_pB08_YmsZ9ejj3nMx-9" edge="1">
                    <mxGeometry x="-0.9111" y="26" relative="1" as="geometry">
                        <mxPoint x="117.5" y="268" as="sourcePoint"/>
                        <mxPoint x="121" y="280" as="targetPoint"/>
                        <mxPoint as="offset"/>
                    </mxGeometry>
                </mxCell>
                <mxCell id="T9_pB08_YmsZ9ejj3nMx-5" value="docker-compose pull" style="edgeStyle=orthogonalEdgeStyle;rounded=0;orthogonalLoop=1;jettySize=auto;entryX=0.5;entryY=1;entryDx=0;entryDy=0;exitX=1;exitY=0.5;exitDx=0;exitDy=0;curved=1;labelBackgroundColor=none;" parent="T9_pB08_YmsZ9ejj3nMx-1" source="T9_pB08_YmsZ9ejj3nMx-13" target="T9_pB08_YmsZ9ejj3nMx-12" edge="1">
                    <mxGeometry x="-0.4715" y="-17" relative="1" as="geometry">
                        <mxPoint x="163.72000000000003" y="453.5" as="sourcePoint"/>
                        <mxPoint x="598" y="352" as="targetPoint"/>
                        <mxPoint as="offset"/>
                    </mxGeometry>
                </mxCell>
                <mxCell id="T9_pB08_YmsZ9ejj3nMx-6" value="docker-compose up -d --no-build" style="edgeStyle=orthogonalEdgeStyle;rounded=0;orthogonalLoop=1;jettySize=auto;exitX=0;exitY=0.5;exitDx=0;exitDy=0;curved=1;entryX=1;entryY=0.5;entryDx=0;entryDy=0;labelBackgroundColor=none;" parent="T9_pB08_YmsZ9ejj3nMx-1" source="T9_pB08_YmsZ9ejj3nMx-13" target="T9_pB08_YmsZ9ejj3nMx-10" edge="1">
                    <mxGeometry x="-0.3654" y="-23" relative="1" as="geometry">
                        <mxPoint x="113.25" y="500" as="sourcePoint"/>
                        <mxPoint x="112.79999999999995" y="597" as="targetPoint"/>
                        <Array as="points">
                            <mxPoint x="290" y="483"/>
                            <mxPoint x="290" y="483"/>
                        </Array>
                        <mxPoint as="offset"/>
                    </mxGeometry>
                </mxCell>
                <mxCell id="T9_pB08_YmsZ9ejj3nMx-7" value="dispatch webhook &lt;br&gt;event&amp;nbsp;push" style="curved=1;endArrow=classic;html=1;exitX=1;exitY=0.25;exitDx=0;exitDy=0;entryX=1;entryY=0.75;entryDx=0;entryDy=0;align=center;verticalAlign=middle;" parent="T9_pB08_YmsZ9ejj3nMx-1" source="T9_pB08_YmsZ9ejj3nMx-9" target="T9_pB08_YmsZ9ejj3nMx-9" edge="1">
                    <mxGeometry x="0.017" y="51" width="50" height="50" relative="1" as="geometry">
                        <mxPoint x="659.5" y="66.5" as="sourcePoint"/>
                        <mxPoint x="629.5" y="96.5" as="targetPoint"/>
                        <Array as="points">
                            <mxPoint x="659.5" y="56.5"/>
                            <mxPoint x="679.5" y="82.5"/>
                            <mxPoint x="659.5" y="106.5"/>
                        </Array>
                        <mxPoint x="11" y="-32" as="offset"/>
                    </mxGeometry>
                </mxCell>
                <mxCell id="T9_pB08_YmsZ9ejj3nMx-8" value="" style="rounded=0;orthogonalLoop=1;jettySize=auto;exitX=1;exitY=0.5;exitDx=0;exitDy=0;fontSize=12;align=left;" parent="T9_pB08_YmsZ9ejj3nMx-1" source="T9_pB08_YmsZ9ejj3nMx-15" target="T9_pB08_YmsZ9ejj3nMx-12" edge="1">
                    <mxGeometry relative="1" as="geometry"/>
                </mxCell>
                <mxCell id="T9_pB08_YmsZ9ejj3nMx-9" value="Repository on &#10;GitHub" style="shape=image;verticalLabelPosition=bottom;labelBackgroundColor=#ffffff;verticalAlign=top;aspect=fixed;imageAspect=0;image=https://image.flaticon.com/icons/svg/25/25231.svg;fontColor=#000000;" parent="T9_pB08_YmsZ9ejj3nMx-1" vertex="1">
                    <mxGeometry x="560" y="46.5" width="72" height="72" as="geometry"/>
                </mxCell>
                <mxCell id="9" value="" style="edgeStyle=orthogonalEdgeStyle;rounded=0;orthogonalLoop=1;jettySize=auto;labelBackgroundColor=none;curved=1;exitX=0.5;exitY=1;exitDx=0;exitDy=0;entryX=0;entryY=0.5;entryDx=0;entryDy=0;" parent="T9_pB08_YmsZ9ejj3nMx-1" source="T9_pB08_YmsZ9ejj3nMx-10" target="8" edge="1">
                    <mxGeometry relative="1" as="geometry"/>
                </mxCell>
                <mxCell id="T9_pB08_YmsZ9ejj3nMx-10" value="Learning Graphql" style="rounded=0;whiteSpace=wrap;html=1;fillColor=#d5e8d4;strokeColor=#9DD97C;fontColor=#333333;" parent="T9_pB08_YmsZ9ejj3nMx-1" vertex="1">
                    <mxGeometry x="62.5" y="453" width="120" height="60" as="geometry"/>
                </mxCell>
                <mxCell id="T9_pB08_YmsZ9ejj3nMx-11" value="Build tool&#10;AWS CodeBuild" style="shape=image;verticalLabelPosition=bottom;labelBackgroundColor=none;verticalAlign=top;aspect=fixed;imageAspect=0;image=https://miro.medium.com/max/340/1*3OUevq-C4JmpllXgzt8_4Q.png;" parent="T9_pB08_YmsZ9ejj3nMx-1" vertex="1">
                    <mxGeometry x="80" y="277.5" width="60.54" height="73" as="geometry"/>
                </mxCell>
                <mxCell id="T9_pB08_YmsZ9ejj3nMx-13" value="Instance machine&#10;AWS EC2" style="shape=image;verticalLabelPosition=bottom;labelBackgroundColor=none;verticalAlign=top;aspect=fixed;imageAspect=0;image=data:image/png,iVBORw0KGgoAAAANSUhEUgAAAF0AAABdCAYAAADHcWrDAAAABGdBTUEAALGPC/xhBQAAACBjSFJNAAB6JgAAgIQAAPoAAACA6AAAdTAAAOpgAAA6mAAAF3CculE8AAAAeGVYSWZNTQAqAAAACAAFARIAAwAAAAEAAQAAARoABQAAAAEAAABKARsABQAAAAEAAABSASgAAwAAAAEAAgAAh2kABAAAAAEAAABaAAAAAAAAAEgAAAABAAAASAAAAAEAAqACAAQAAAABAAAAXaADAAQAAAABAAAAXQAAAABnPM5dAAAACXBIWXMAAAsTAAALEwEAmpwYAAABWWlUWHRYTUw6Y29tLmFkb2JlLnhtcAAAAAAAPHg6eG1wbWV0YSB4bWxuczp4PSJhZG9iZTpuczptZXRhLyIgeDp4bXB0az0iWE1QIENvcmUgNS40LjAiPgogICA8cmRmOlJERiB4bWxuczpyZGY9Imh0dHA6Ly93d3cudzMub3JnLzE5OTkvMDIvMjItcmRmLXN5bnRheC1ucyMiPgogICAgICA8cmRmOkRlc2NyaXB0aW9uIHJkZjphYm91dD0iIgogICAgICAgICAgICB4bWxuczp0aWZmPSJodHRwOi8vbnMuYWRvYmUuY29tL3RpZmYvMS4wLyI+CiAgICAgICAgIDx0aWZmOk9yaWVudGF0aW9uPjE8L3RpZmY6T3JpZW50YXRpb24+CiAgICAgIDwvcmRmOkRlc2NyaXB0aW9uPgogICA8L3JkZjpSREY+CjwveDp4bXBtZXRhPgpMwidZAAAEbklEQVR4Ae3dMW/TQBQH8LMbEAgKdAFGVwLRsQuCsfAJMjI6YmFlRAylA2LkAyDUdEMIoXwD2gkQQgobKkOzMSFAtAKa1sc7yqNW2ocTx//4jN9J0dl+l+e7X9tnp4NjjDYVUAEVUAEVUIH6Cry8NR99f3A1qpJAUKXJpue63JyLErO7eHa6EV+fm6ZQ0A7DYOn4nVe99DgftyuHztiEGTtQQjd76G7PNf/xK4M+iL0HfBg6R/zFD3mKvvdUSjZojvHw87RxkiQbW/evLPtW8yuDPjz24Ej/8GuAzj8Ef/C9qelcs29cnlkgppUwDNvpO5HHzYuW+dL9wQtpOvqv7fJqfunojE08sSMidNf9bkFgVxNrVvr9fud5d+szH0/3+dE5y+TxS0NfbkZnEnPkIS095uW7Po2ePv7kzaHmh9wypt81yvbk8Eur6TumMU8k8Sgs2LGTq/mloWMBx8mOx2+MM71h3ss1+9qlk81zp452rEnWXI1+1t0c5u0ljnH4Nqb7/ML/vQCr6YxNarGTcx/V3UWP28ev/d7a+mbE+9yXV9N5BlJfXM2HlZesT5BTYRBJy/PzeHFlB4buJ1wRsxoff//vPed8uIy4mn3+dKNrbbCWJOHq07efcmasytvy1/zc6HyfTWUkdkxBEBgCX6DNhTBMFt2xerR9/O3+z9sz97pfstadu7z4d5+dtVR03MaNqWPus0dmy42emVkHiAKKLtLgAoqOsxUzK7pIgwsoOs5WzKzoIg0uoOg4WzGzoos0uICi42zFzIou0uACio6zFTMrukiDCyg6zlbMrOgiDS6g6DhbMbOiizS4gKLjbMXMii7S4AKKjrMVMyu6SIMLKDrOVsys6CINLqDoOFsxs6KLNLiAouNsxcyKLtLgAoqOsxUzK7pIgwsoOs5WzKzoIg0uoOg4WzGzoos0uICi42zFzIou0uACio6zFTMrukiDCyg6zlbMrOgiDS6g6DhbMbOiizS4gKLjbMXMii7S4AKKjrMVMyu6SIMLKDrOVsys6CINLqDoOFsxc270htnpUta2mLl2gaC9s/vDmWS23E82anV67gk+LXqc1JJ7Yr+1tkn7q/R65x4nRf0LetWgjf4Uu9zorNnqvO/RduvPiw8beiDx3+3/c2N0bHYYG50T1afPj81GMPTQTM26skMnivlk6X43sT3aj9LH/N4eH5vXl/tCygmk3pWdm50PLYdPY9pU8+kaELStsa3t/vbMi/VvriRVoDnscPbE3det9PPcx5k47DedJyXV/EfNCzzE07643+zBBcLRB0/o/z4Om9deGrq7z6eH1rdpIjG9PGh4bF4krKbzCaTe3eena74wrsvXACFewOHia3bWpIKsAZOK8zN79YtIJiU+xHmK+/aXyZURaVml1XRpQrjj5WPz2mqA7g925dCzPuHygvZ7/7B5bt5cSHlCWT1fcGlc7MYe/HIpf7HdfF2rHPretI1hfEKv3JfA8hoq21fx644ri60TVwEVUAEVOCDwC7dzidiGqgWjAAAAAElFTkSuQmCC;" parent="T9_pB08_YmsZ9ejj3nMx-1" vertex="1">
                    <mxGeometry x="509" y="441.5" width="83" height="83" as="geometry"/>
                </mxCell>
                <mxCell id="T9_pB08_YmsZ9ejj3nMx-19" value="Local Git" style="shape=image;verticalLabelPosition=bottom;labelBackgroundColor=#ffffff;verticalAlign=top;aspect=fixed;imageAspect=0;image=https://git-scm.com/images/logos/downloads/Git-Icon-1788C.png;fontColor=#000000;" parent="T9_pB08_YmsZ9ejj3nMx-1" vertex="1">
                    <mxGeometry x="78" y="45.5" width="74" height="74" as="geometry"/>
                </mxCell>
                <mxCell id="T9_pB08_YmsZ9ejj3nMx-18" value="" style="rounded=0;orthogonalLoop=1;jettySize=auto;entryX=0;entryY=0.5;entryDx=0;entryDy=0;exitX=1;exitY=0.5;exitDx=0;exitDy=0;" parent="T9_pB08_YmsZ9ejj3nMx-1" source="T9_pB08_YmsZ9ejj3nMx-11" target="T9_pB08_YmsZ9ejj3nMx-15" edge="1">
                    <mxGeometry relative="1" as="geometry">
                        <mxPoint x="150.75" y="301.25" as="sourcePoint"/>
                    </mxGeometry>
                </mxCell>
                <mxCell id="8" value="Instance PostgreSQL&#10;AWS RDS" style="shape=image;verticalLabelPosition=bottom;labelBackgroundColor=none;verticalAlign=top;aspect=fixed;imageAspect=0;image=https://d1.awsstatic.com/icons/jp/rds_icon_concole.fe14dd124ff0ce7cd8f55f63e0112170c35885f1.png;" parent="T9_pB08_YmsZ9ejj3nMx-1" vertex="1">
                    <mxGeometry x="229" y="540" width="90" height="90" as="geometry"/>
                </mxCell>
                <mxCell id="T9_pB08_YmsZ9ejj3nMx-12" value="Private docker registry&#10;AWS ECR" style="shape=image;verticalLabelPosition=bottom;labelBackgroundColor=none;verticalAlign=top;aspect=fixed;imageAspect=0;image=data:image/png,iVBORw0KGgoAAAANSUhEUgAAAE4AAABNCAYAAAAIPlKzAAAABGdBTUEAALGPC/xhBQAAACBjSFJNAAB6JgAAgIQAAPoAAACA6AAAdTAAAOpgAAA6mAAAF3CculE8AAAAeGVYSWZNTQAqAAAACAAFARIAAwAAAAEAAQAAARoABQAAAAEAAABKARsABQAAAAEAAABSASgAAwAAAAEAAgAAh2kABAAAAAEAAABaAAAAAAAAAEgAAAABAAAASAAAAAEAAqACAAQAAAABAAAATqADAAQAAAABAAAATQAAAABDF5smAAAACXBIWXMAAAsTAAALEwEAmpwYAAABWWlUWHRYTUw6Y29tLmFkb2JlLnhtcAAAAAAAPHg6eG1wbWV0YSB4bWxuczp4PSJhZG9iZTpuczptZXRhLyIgeDp4bXB0az0iWE1QIENvcmUgNS40LjAiPgogICA8cmRmOlJERiB4bWxuczpyZGY9Imh0dHA6Ly93d3cudzMub3JnLzE5OTkvMDIvMjItcmRmLXN5bnRheC1ucyMiPgogICAgICA8cmRmOkRlc2NyaXB0aW9uIHJkZjphYm91dD0iIgogICAgICAgICAgICB4bWxuczp0aWZmPSJodHRwOi8vbnMuYWRvYmUuY29tL3RpZmYvMS4wLyI+CiAgICAgICAgIDx0aWZmOk9yaWVudGF0aW9uPjE8L3RpZmY6T3JpZW50YXRpb24+CiAgICAgIDwvcmRmOkRlc2NyaXB0aW9uPgogICA8L3JkZjpSREY+CjwveDp4bXBtZXRhPgpMwidZAAAKKUlEQVR4Ae1cXWxcRxWee/fPqZN2I6IEGtRsoE0r9UebSgmVUIgjAS+N1I3goRJF2LR9KH1I81IJqjYxiCL1JeElPLRgI0DqAxJbib4Akl0KUkmldFWCAKeQTZumJCrNVo4de3/u5XyzezZ31/dn5u5cuzE70vXMnDlz5pxvz8ycmXtlIYZpiMAQgSECQwSGCAwRGCIwRGCIwP8RAtZa23rtRw8UHNcpClcUhbB2WJZT8NPJde2qEO55YYmKbdmVDd99g+prl9YEuKs/3DNuCXs/AVEi0/Mxza8S0LOucF5rNBrlzccqtZhyYnVbNeAIrCKBdXhAsIKMJNCsMoH4443PvFkJYjJJTxy4+R88MJZKtY66rjVmUvEgWZblzrZaqclNz74xG8Rjgp4YcFeOFfPZTO44edi4jqLWyCaRuvdBkdpxv+zWOn9atP76qnCX5nXEEK81XW8sH0lqCicC3MLze0u02E+R9lrrl71tl8h946QAeN4E0JZ/9R3hXJrzklXKNdpMJka/d6qswqzDYxS4uF4Gha1bPiNGHv3FCtDYGIC39NNvCvfjD5ikkZv3Pltj9FDWNmjZGd2pyUIz+x7vggZw6r/9vnwYKHgheOIldzybyc5Ax3j9V/YyAhx2TFLsLRJfXDmEGiW160tdxqVfPiGab78qH5Q5eXmYppFLHaGrRp9A1oGBa4cZFnmaKASOotDgXdfYy9DNW/byKIj0YylYwpoxAd5AwMH1SRHtTcDPIi9A6T0Pd1m8ZS9Pl0G/IHUedNqm9ce93gPrBtWMuD6mZmbfY1J49itHRPrO/bJs39YOS1ABj6GEaQvdd8eVF9vjrj6/h2I0M6BB+cbrL/aEGwDMCxpCEfAYTMWODbFExgpHcBqwbQe/mNEkd84vk7fd92CPXHha4w/HYwTBPWJ8K45jH4hzytAGrhN2YAct+GoyABGxHNYxAGhvu0NKci6dlYBx2wDig7pW6436bt0ThvYaR2vDU6RBIUiLQejp+w5Kb2vNvUZgXZWiUrv2CzzS68xOVVa10LHpGBNUci2Pk3dnjnNORXAcHkzR7MHnfLsiIDa4OawYw7btnTp3fFqbg+O4R1eMaJAQFm6EtZlQQdc2ZeDacY/eTYeuQTw9/fqFtfnx69PccZ3YThm4XDo3rq+MXo+w24+wNr1Rgrl1bFQGzrXcw8FDmmvxu3fzo5kb8boksvFb12vhJSXgOme7QrgoM63u5bMrBPnRVjCZIRSxAaqIUgLOdu0xFWHrgcdtyRdIkaYoAUcuvD9SkiEGXJX3Jz9aP4+xuu08pCJLCTgSNKYibD3w0EslpUuLyAA46aC3H2y8d0AgzF6GlzY4SXC9nz+JukowHHnkajZFwVb1SwNWtG9BPqBjVvtGuPH6S4kc7sNUhc3UXg3jiQQuZblFN0yCoTbpWbS+wdsydEPCt70IRXAzguMW8xgaMlAMbKbG2UAGaogEjjaGfJiAQdoAROreg9K78O4UNyEMGge8mLqgteb+KA/72a+9IMty+tIUTiKp2BwJnGnFeA3DjQeuijgBCExPeBpAw6tApJFHfiIvNNEGHlylwyvx4PwKGryRgWZ5SeerAhwAyux9WHqMF6wg47wH+u6pIYeX1L3vVCFLAklgMoiNUy/3vOAJGmNQeuLAwYPCXjSzAfBA3ghQzn39BdmEMsCDZwH8oMQg4vOJpZOHEt9QEt8vswef7S70QUaDDoOR+IocgDFooInlq10eyRjwBz8Uxkw6JepxbLyKETAY343gGxHEbOiLBE8DaH7flATJ5XFl3yCmAemRwP37v3XxuU9ltYfx++Ux5Zx3T8vdEwLdjy9216OeAJf4mm++3DMmbxbYiZEwNa1bbpVlvJ/AGzGMyQlet3TydKwpC5ujUiRwi3UnSoZve/8UBWgxvzjqkd8DsKel/0sn/uGWf/20h0utqGJz5Bp35sJiTW2461w8VZhiCjSW55cjHMEPg7E49evB9KhcxeZI4MjfKrXFVtRY3Xb+pZmwGqDxWH7g9Xs+8wblsBU2B7UzPRK4tEhXr2gA51V0NUFjg7rgdb6j6/8hmS8ovzzfpONUuhrUzvTI2xEw/u7bd1/54udHI49eWLA3PFmWsrsG0NTB+oPvQVYj1X9/XJ4iABh2YoyNhM0FOkWlP/9rofbVn/1tcxRfpMdBwIWP6pVGK/qoj+gdizF2Tu96Y41sbH8H4jSFoMfeSrsgPSjLOnbE7E2ybN28rZcXbUQDH3jk9yTcz08OjYXU9XboAp0UQION7320PCsFRPyJ3FXR3xXuKxeuNMZ2bokOSxA7BcVPTvWUVMfKb5c51+3CXuH85+/Crb0vUEa7tw101EFPffqubpufHCm48wfgeT9M9Lb5lclGkJVuDpQ8zhbp8rkPl/3GWlc02AhbVYxSAm6i/I/qpflmZWE5Xkynosha88A22AhbVXRRAg6CLOH+/MzFayoyb0ge2AYbVZVXBs4WzelzH9aFTkynqsRa88Em2AYbVXVRBm6iXK2R0OnT7y6qyr5h+Do2TXdsVNJbGThIs0VqEgHi3KX1s1HAFtgE25QQ6zBpAddeOK3JM+9fE+tho4ANsIVW8EnVTYHB1QIOnWxRP1FvudU/vdP+YpIF3Yg5bIAtsElXf23gsA44wp3A+fUv5xZ0x/vE8EN32ABbdNY2NkAbOHR8vPzOLGUnsBOdubgE0g2VoDN0p3SiY4u2/rGAwyiPls8eodNrBWtER4nIwXFEksekdI7e6OZkmY9N1sYt7frIzVJOl5dqFtFknXiQum0+ciRDyB/5Y5PO0B02hLCGNimdVYMkpETjQEtkZsjti7XFpth9Gx3UQ1KqeKin1Vu3b98X2GbR+RRnVE7efqD115mvP3+LQql/0i4K0KB7f7tO3dJh9uOdKt1RpIPYDLXlcQlwP4GXSQ0s1m+o2DTceiBW68yMGk2zAxPls5XYAqmjEQs74P2G5BU235QSX9g5KvKUfxISTgW8EZA+tIOKQ4OCBruMAAdBU6VCHtOWBBZRv2f7BnHPrSMorlnCJtCO03A11p6ecXZQPwOMAQfhAM8RGXp7LMZRH83Z0vu2bhpoKYUorYSTALzME6RP26JxxBRoUMYocGzdS6VdJbppmKJ6HjQAd+e2EbF9c4ZZEsmxhuFODcB1Us0V1sRj5bkyE0zliQAH5fq9DzR44GfzGbFzS87YGti+2VgWF2oNr4dhOONeBqGcEgOOB3ixdPtYSlhHaY0ZYxpygAhP3LopI7ChqG4mAAoR/+X5hvQsz3SU4smg2ZZwJ+MGtl4dw8qJA8eDd3bew1Qv0SOnMLdxDjBHs/4x+QJ9UdAPEvejvEZPGTccuod1jwyt4qoB59WqswY+RLQxegr0xElV6jRLa9grSaxhUQqtCXBepaZKdxXoqE3/sAphjLuD8oK3ncs01au0l51vhxW28rsB7j/MhwgMERgiMERAHYH/AS3AZGgAut0UAAAAAElFTkSuQmCC;" parent="T9_pB08_YmsZ9ejj3nMx-1" vertex="1">
                    <mxGeometry x="640" y="273.5" width="78" height="77" as="geometry"/>
                </mxCell>
                <mxCell id="T9_pB08_YmsZ9ejj3nMx-15" value="Docker image" style="rounded=0;whiteSpace=wrap;html=1;align=center;verticalAlign=top;spacingTop=5;fillColor=#BABABA;strokeColor=#666666;fontColor=#333333;" parent="T9_pB08_YmsZ9ejj3nMx-1" vertex="1">
                    <mxGeometry x="319" y="264" width="190" height="100" as="geometry"/>
                </mxCell>
                <mxCell id="T9_pB08_YmsZ9ejj3nMx-16" value="build" style="shape=step;perimeter=stepPerimeter;whiteSpace=wrap;html=1;fixedSize=1;align=center;spacingLeft=8;" parent="T9_pB08_YmsZ9ejj3nMx-1" vertex="1">
                    <mxGeometry x="339" y="303" width="80" height="40" as="geometry"/>
                </mxCell>
                <mxCell id="T9_pB08_YmsZ9ejj3nMx-17" value="push" style="shape=step;perimeter=stepPerimeter;whiteSpace=wrap;html=1;fixedSize=1;align=center;spacingLeft=8;" parent="T9_pB08_YmsZ9ejj3nMx-1" vertex="1">
                    <mxGeometry x="409" y="303" width="80" height="40" as="geometry"/>
                </mxCell>
            </root>
        </mxGraphModel>
    </diagram>
    <diagram id="o1z8f_Y5SoN56Fj_0EKW" name="DevOps Azure">
        <mxGraphModel dx="655" dy="837" grid="1" gridSize="10" guides="1" tooltips="1" connect="1" arrows="1" fold="1" page="1" pageScale="1" pageWidth="827" pageHeight="1169" math="0" shadow="0">
            &#xa;            &#xa;&#xa;
            <root>
                &#xa;                &#xa;&#xa;
                <mxCell id="VNS4d-X7utqQrp1qFfy--0"/>
                &#xa;                &#xa;&#xa;
                <mxCell id="VNS4d-X7utqQrp1qFfy--1" parent="VNS4d-X7utqQrp1qFfy--0"/>
                &#xa;                &#xa;&#xa;
                <mxCell id="HH1yixSwar4eWhzetjZM-14" value="Docker image" style="rounded=0;whiteSpace=wrap;html=1;align=center;verticalAlign=top;spacingTop=5;fillColor=#BABABA;strokeColor=#666666;fontColor=#333333;" parent="VNS4d-X7utqQrp1qFfy--1" vertex="1">
                    &#xa;                    &#xa;&#xa;
                    <mxGeometry x="261.75" y="241" width="190" height="100" as="geometry"/>
                    &#xa;                    &#xa;&#xa;
                </mxCell>
                &#xa;                &#xa;&#xa;
                <mxCell id="vmSCCPWaYG9vSzQxL80U-4" value="git push origin branch_name" style="edgeStyle=orthogonalEdgeStyle;rounded=0;orthogonalLoop=1;jettySize=auto;html=1;entryX=0;entryY=0.5;entryDx=0;entryDy=0;exitX=1;exitY=0.5;exitDx=0;exitDy=0;" parent="VNS4d-X7utqQrp1qFfy--1" source="HH1yixSwar4eWhzetjZM-15" target="HH1yixSwar4eWhzetjZM-16" edge="1">
                    &#xa;                    &#xa;&#xa;
                    <mxGeometry x="-0.5631" y="13" relative="1" as="geometry">
                        &#xa;                        &#xa;&#xa;
                        <mxPoint x="201" y="170" as="sourcePoint"/>
                        &#xa;                        &#xa;&#xa;
                        <mxPoint x="120.5" y="230" as="targetPoint"/>
                        &#xa;                        &#xa;&#xa;
                        <Array as="points">
                            &#xa;                            &#xa;&#xa;
                            <mxPoint x="157" y="83"/>
                            &#xa;                            &#xa;&#xa;
                        </Array>
                        &#xa;                        &#xa;&#xa;
                        <mxPoint as="offset"/>
                        &#xa;                        &#xa;&#xa;
                    </mxGeometry>
                    &#xa;                    &#xa;&#xa;
                </mxCell>
                &#xa;                &#xa;&#xa;
                <mxCell id="vmSCCPWaYG9vSzQxL80U-6" value="pull branch" style="edgeStyle=orthogonalEdgeStyle;rounded=0;orthogonalLoop=1;jettySize=auto;html=1;entryX=0.5;entryY=1;entryDx=0;entryDy=0;exitX=0.5;exitY=0;exitDx=0;exitDy=0;" parent="VNS4d-X7utqQrp1qFfy--1" source="HH1yixSwar4eWhzetjZM-17" target="HH1yixSwar4eWhzetjZM-16" edge="1">
                    &#xa;                    &#xa;&#xa;
                    <mxGeometry x="-0.8769" relative="1" as="geometry">
                        &#xa;                        &#xa;&#xa;
                        <mxPoint x="121" y="450" as="sourcePoint"/>
                        &#xa;                        &#xa;&#xa;
                        <mxPoint x="121" y="280" as="targetPoint"/>
                        &#xa;                        &#xa;&#xa;
                        <mxPoint as="offset"/>
                        &#xa;                        &#xa;&#xa;
                    </mxGeometry>
                    &#xa;                    &#xa;&#xa;
                </mxCell>
                &#xa;                &#xa;&#xa;
                <mxCell id="HH1yixSwar4eWhzetjZM-12" style="edgeStyle=orthogonalEdgeStyle;rounded=0;orthogonalLoop=1;jettySize=auto;html=1;entryX=0.175;entryY=0.525;entryDx=0;entryDy=0;entryPerimeter=0;exitX=1;exitY=0.5;exitDx=0;exitDy=0;" parent="VNS4d-X7utqQrp1qFfy--1" source="HH1yixSwar4eWhzetjZM-17" target="HH1yixSwar4eWhzetjZM-9" edge="1">
                    &#xa;                    &#xa;&#xa;
                    <mxGeometry relative="1" as="geometry">
                        &#xa;                        &#xa;&#xa;
                        <mxPoint x="210.75" y="348" as="sourcePoint"/>
                        &#xa;                        &#xa;&#xa;
                    </mxGeometry>
                    &#xa;                    &#xa;&#xa;
                </mxCell>
                &#xa;                &#xa;&#xa;
                <mxCell id="HH1yixSwar4eWhzetjZM-6" value="pull docker image" style="edgeStyle=orthogonalEdgeStyle;rounded=0;orthogonalLoop=1;jettySize=auto;html=1;entryX=0.5;entryY=1;entryDx=0;entryDy=0;exitX=1;exitY=0.5;exitDx=0;exitDy=0;" parent="VNS4d-X7utqQrp1qFfy--1" source="HH1yixSwar4eWhzetjZM-19" target="HH1yixSwar4eWhzetjZM-28" edge="1">
                    &#xa;                    &#xa;&#xa;
                    <mxGeometry x="0.6652" y="367" relative="1" as="geometry">
                        &#xa;                        &#xa;&#xa;
                        <mxPoint x="176.75" y="497" as="sourcePoint"/>
                        &#xa;                        &#xa;&#xa;
                        <mxPoint x="556.75" y="309" as="targetPoint"/>
                        &#xa;                        &#xa;&#xa;
                        <mxPoint as="offset"/>
                        &#xa;                        &#xa;&#xa;
                    </mxGeometry>
                    &#xa;                    &#xa;&#xa;
                </mxCell>
                &#xa;                &#xa;&#xa;
                <mxCell id="HH1yixSwar4eWhzetjZM-8" value="docker run image_name" style="edgeStyle=orthogonalEdgeStyle;rounded=0;orthogonalLoop=1;jettySize=auto;html=1;exitX=0.5;exitY=1;exitDx=0;exitDy=0;" parent="VNS4d-X7utqQrp1qFfy--1" source="HH1yixSwar4eWhzetjZM-24" target="HH1yixSwar4eWhzetjZM-7" edge="1">
                    &#xa;                    &#xa;&#xa;
                    <mxGeometry relative="1" as="geometry">
                        &#xa;                        &#xa;&#xa;
                        <mxPoint x="176.75" y="567" as="sourcePoint"/>
                        &#xa;                        &#xa;&#xa;
                    </mxGeometry>
                    &#xa;                    &#xa;&#xa;
                </mxCell>
                &#xa;                &#xa;&#xa;
                <mxCell id="HH1yixSwar4eWhzetjZM-7" value="App Service" style="rounded=0;whiteSpace=wrap;html=1;fillColor=#d5e8d4;strokeColor=#9DD97C;fontColor=#333333;" parent="VNS4d-X7utqQrp1qFfy--1" vertex="1">
                    &#xa;                    &#xa;&#xa;
                    <mxGeometry x="52.75" y="597" width="120" height="60" as="geometry"/>
                    &#xa;                    &#xa;&#xa;
                </mxCell>
                &#xa;                &#xa;&#xa;
                <mxCell id="HH1yixSwar4eWhzetjZM-1" value="dispatch webhook &lt;br&gt;event&amp;nbsp;push" style="curved=1;endArrow=classic;html=1;exitX=1;exitY=0.25;exitDx=0;exitDy=0;entryX=1;entryY=0.75;entryDx=0;entryDy=0;align=left;" parent="VNS4d-X7utqQrp1qFfy--1" source="HH1yixSwar4eWhzetjZM-16" target="HH1yixSwar4eWhzetjZM-16" edge="1">
                    &#xa;                    &#xa;&#xa;
                    <mxGeometry x="0.017" width="50" height="50" relative="1" as="geometry">
                        &#xa;                        &#xa;&#xa;
                        <mxPoint x="659.5" y="66.5" as="sourcePoint"/>
                        &#xa;                        &#xa;&#xa;
                        <mxPoint x="629.5" y="96.5" as="targetPoint"/>
                        &#xa;                        &#xa;&#xa;
                        <Array as="points">
                            &#xa;                            &#xa;&#xa;
                            <mxPoint x="659.5" y="56.5"/>
                            &#xa;                            &#xa;&#xa;
                            <mxPoint x="679.5" y="82.5"/>
                            &#xa;                            &#xa;&#xa;
                            <mxPoint x="659.5" y="106.5"/>
                            &#xa;                            &#xa;&#xa;
                        </Array>
                        &#xa;                        &#xa;&#xa;
                        <mxPoint as="offset"/>
                        &#xa;                        &#xa;&#xa;
                    </mxGeometry>
                    &#xa;                    &#xa;&#xa;
                </mxCell>
                &#xa;                &#xa;&#xa;
                <mxCell id="HH1yixSwar4eWhzetjZM-9" value="build" style="shape=step;perimeter=stepPerimeter;whiteSpace=wrap;html=1;fixedSize=1;align=center;spacingLeft=8;" parent="VNS4d-X7utqQrp1qFfy--1" vertex="1">
                    &#xa;                    &#xa;&#xa;
                    <mxGeometry x="281.75" y="280" width="80" height="40" as="geometry"/>
                    &#xa;                    &#xa;&#xa;
                </mxCell>
                &#xa;                &#xa;&#xa;
                <mxCell id="HH1yixSwar4eWhzetjZM-13" style="edgeStyle=orthogonalEdgeStyle;rounded=0;orthogonalLoop=1;jettySize=auto;html=1;exitX=1;exitY=0.5;exitDx=0;exitDy=0;entryX=0;entryY=0.5;entryDx=0;entryDy=0;" parent="VNS4d-X7utqQrp1qFfy--1" source="HH1yixSwar4eWhzetjZM-10" target="HH1yixSwar4eWhzetjZM-18" edge="1">
                    &#xa;                    &#xa;&#xa;
                    <mxGeometry relative="1" as="geometry">
                        &#xa;                        &#xa;&#xa;
                        <mxPoint x="496.75" y="300" as="targetPoint"/>
                        &#xa;                        &#xa;&#xa;
                    </mxGeometry>
                    &#xa;                    &#xa;&#xa;
                </mxCell>
                &#xa;                &#xa;&#xa;
                <mxCell id="HH1yixSwar4eWhzetjZM-10" value="push" style="shape=step;perimeter=stepPerimeter;whiteSpace=wrap;html=1;fixedSize=1;align=center;spacingLeft=8;" parent="VNS4d-X7utqQrp1qFfy--1" vertex="1">
                    &#xa;                    &#xa;&#xa;
                    <mxGeometry x="351.75" y="280" width="80" height="40" as="geometry"/>
                    &#xa;                    &#xa;&#xa;
                </mxCell>
                &#xa;                &#xa;&#xa;
                <mxCell id="HH1yixSwar4eWhzetjZM-16" value="" style="shape=image;verticalLabelPosition=bottom;labelBackgroundColor=#ffffff;verticalAlign=top;aspect=fixed;imageAspect=0;image=https://image.flaticon.com/icons/svg/25/25231.svg;" parent="VNS4d-X7utqQrp1qFfy--1" vertex="1">
                    &#xa;                    &#xa;&#xa;
                    <mxGeometry x="560" y="46.5" width="72" height="72" as="geometry"/>
                    &#xa;                    &#xa;&#xa;
                </mxCell>
                &#xa;                &#xa;&#xa;
                <mxCell id="HH1yixSwar4eWhzetjZM-25" value="" style="group" parent="VNS4d-X7utqQrp1qFfy--1" vertex="1" connectable="0">
                    &#xa;                    &#xa;&#xa;
                    <mxGeometry x="73.75" y="268" width="96" height="86.5" as="geometry"/>
                    &#xa;                    &#xa;&#xa;
                </mxCell>
                &#xa;                &#xa;&#xa;
                <mxCell id="HH1yixSwar4eWhzetjZM-17" value="" style="shape=image;verticalLabelPosition=bottom;labelBackgroundColor=#ffffff;verticalAlign=top;aspect=fixed;imageAspect=0;image=https://devopscli.gallerycdn.vsassets.io/extensions/devopscli/devopsautomation/0.0.6/1558003624741/Microsoft.VisualStudio.Services.Icons.Default;" parent="HH1yixSwar4eWhzetjZM-25" vertex="1">
                    &#xa;                    &#xa;&#xa;
                    <mxGeometry x="10.5" width="66.5" height="66.5" as="geometry"/>
                    &#xa;                    &#xa;&#xa;
                </mxCell>
                &#xa;                &#xa;&#xa;
                <mxCell id="HH1yixSwar4eWhzetjZM-21" value="Azure DevOps" style="text;html=1;strokeColor=none;fillColor=none;align=center;verticalAlign=middle;whiteSpace=wrap;rounded=0;fontColor=#dbdbdb;" parent="HH1yixSwar4eWhzetjZM-25" vertex="1">
                    &#xa;                    &#xa;&#xa;
                    <mxGeometry y="66.5" width="96" height="20" as="geometry"/>
                    &#xa;                    &#xa;&#xa;
                </mxCell>
                &#xa;                &#xa;&#xa;
                <mxCell id="HH1yixSwar4eWhzetjZM-26" value="" style="group" parent="VNS4d-X7utqQrp1qFfy--1" vertex="1" connectable="0">
                    &#xa;                    &#xa;&#xa;
                    <mxGeometry x="51" y="427" width="124.5" height="73" as="geometry"/>
                    &#xa;                    &#xa;&#xa;
                </mxCell>
                &#xa;                &#xa;&#xa;
                <mxCell id="HH1yixSwar4eWhzetjZM-19" value="" style="shape=image;verticalLabelPosition=bottom;labelBackgroundColor=#ffffff;verticalAlign=top;aspect=fixed;imageAspect=0;image=https://osanamgiordane.com.br/wp-content/uploads/2018/01/download.png;" parent="HH1yixSwar4eWhzetjZM-26" vertex="1">
                    &#xa;                    &#xa;&#xa;
                    <mxGeometry x="11.769999999999996" width="100.95" height="53" as="geometry"/>
                    &#xa;                    &#xa;&#xa;
                </mxCell>
                &#xa;                &#xa;&#xa;
                <mxCell id="HH1yixSwar4eWhzetjZM-24" value="Azure App Service" style="text;html=1;strokeColor=none;fillColor=none;align=center;verticalAlign=middle;whiteSpace=wrap;rounded=0;fontColor=#DBDBDB;" parent="HH1yixSwar4eWhzetjZM-26" vertex="1">
                    &#xa;                    &#xa;&#xa;
                    <mxGeometry y="53" width="124.5" height="20" as="geometry"/>
                    &#xa;                    &#xa;&#xa;
                </mxCell>
                &#xa;                &#xa;&#xa;
                <mxCell id="HH1yixSwar4eWhzetjZM-27" value="" style="group" parent="VNS4d-X7utqQrp1qFfy--1" vertex="1" connectable="0">
                    &#xa;                    &#xa;&#xa;
                    <mxGeometry x="62.5" y="40" width="110" height="99" as="geometry"/>
                    &#xa;                    &#xa;&#xa;
                </mxCell>
                &#xa;                &#xa;&#xa;
                <mxCell id="HH1yixSwar4eWhzetjZM-15" value="" style="shape=image;verticalLabelPosition=bottom;labelBackgroundColor=#ffffff;verticalAlign=top;aspect=fixed;imageAspect=0;image=https://git-scm.com/images/logos/downloads/Git-Icon-1788C.png;" parent="HH1yixSwar4eWhzetjZM-27" vertex="1">
                    &#xa;                    &#xa;&#xa;
                    <mxGeometry x="15.5" y="5.5" width="74" height="74" as="geometry"/>
                    &#xa;                    &#xa;&#xa;
                </mxCell>
                &#xa;                &#xa;&#xa;
                <mxCell id="HH1yixSwar4eWhzetjZM-20" value="Local source code" style="text;html=1;strokeColor=none;fillColor=none;align=center;verticalAlign=middle;whiteSpace=wrap;rounded=0;fontColor=#DBDBDB;" parent="HH1yixSwar4eWhzetjZM-27" vertex="1">
                    &#xa;                    &#xa;&#xa;
                    <mxGeometry y="84" width="110" height="20" as="geometry"/>
                    &#xa;                    &#xa;&#xa;
                </mxCell>
                &#xa;                &#xa;&#xa;
                <mxCell id="7mNEn4Tq5rb4ZhlpRjBp-0" value="dispatch webhook &lt;br&gt;event&amp;nbsp;publish" style="curved=1;endArrow=classic;html=1;exitX=1;exitY=0.25;exitDx=0;exitDy=0;entryX=1;entryY=0.75;entryDx=0;entryDy=0;align=left;" parent="VNS4d-X7utqQrp1qFfy--1" edge="1">
                    &#xa;                    &#xa;&#xa;
                    <mxGeometry x="0.017" width="50" height="50" relative="1" as="geometry">
                        &#xa;                        &#xa;&#xa;
                        <mxPoint x="634.25" y="274" as="sourcePoint"/>
                        &#xa;                        &#xa;&#xa;
                        <mxPoint x="634.25" y="310" as="targetPoint"/>
                        &#xa;                        &#xa;&#xa;
                        <Array as="points">
                            &#xa;                            &#xa;&#xa;
                            <mxPoint x="661.75" y="266"/>
                            &#xa;                            &#xa;&#xa;
                            <mxPoint x="681.75" y="292"/>
                            &#xa;                            &#xa;&#xa;
                            <mxPoint x="661.75" y="316"/>
                            &#xa;                            &#xa;&#xa;
                        </Array>
                        &#xa;                        &#xa;&#xa;
                        <mxPoint as="offset"/>
                        &#xa;                        &#xa;&#xa;
                    </mxGeometry>
                    &#xa;                    &#xa;&#xa;
                </mxCell>
                &#xa;                &#xa;&#xa;
                <mxCell id="7mNEn4Tq5rb4ZhlpRjBp-4" value="" style="group;labelBackgroundColor=none;" parent="VNS4d-X7utqQrp1qFfy--1" vertex="1" connectable="0">
                    &#xa;                    &#xa;&#xa;
                    <mxGeometry x="528" y="268" width="140" height="84" as="geometry"/>
                    &#xa;                    &#xa;&#xa;
                </mxCell>
                &#xa;                &#xa;&#xa;
                <mxCell id="HH1yixSwar4eWhzetjZM-18" value="" style="shape=image;verticalLabelPosition=bottom;labelBackgroundColor=#ffffff;verticalAlign=top;aspect=fixed;imageAspect=0;image=https://www.docker.com/sites/default/files/d8/2019-07/Moby-logo.png;" parent="7mNEn4Tq5rb4ZhlpRjBp-4" vertex="1">
                    &#xa;                    &#xa;&#xa;
                    <mxGeometry x="33.75999999999999" y="6" width="72.49" height="52" as="geometry"/>
                    &#xa;                    &#xa;&#xa;
                </mxCell>
                &#xa;                &#xa;&#xa;
                <mxCell id="7mNEn4Tq5rb4ZhlpRjBp-1" value="" style="shape=image;verticalLabelPosition=bottom;labelBackgroundColor=#ffffff;verticalAlign=top;aspect=fixed;imageAspect=0;image=https://osanamgiordane.com.br/wp-content/uploads/2018/01/download.png;" parent="7mNEn4Tq5rb4ZhlpRjBp-4" vertex="1">
                    &#xa;                    &#xa;&#xa;
                    <mxGeometry x="14.25" width="38.1" height="20" as="geometry"/>
                    &#xa;                    &#xa;&#xa;
                </mxCell>
                &#xa;                &#xa;&#xa;
                <mxCell id="HH1yixSwar4eWhzetjZM-28" value="&lt;span style=&quot;font-family: &amp;quot;helvetica&amp;quot; ; font-size: 12px ; font-style: normal ; font-weight: 400 ; letter-spacing: normal ; text-align: center ; text-indent: 0px ; text-transform: none ; word-spacing: 0px ; float: none ; display: inline&quot;&gt;Private Docker Registry&lt;/span&gt;" style="text;html=1;align=center;verticalAlign=middle;whiteSpace=wrap;rounded=0;fontColor=#DBDBDB;" parent="7mNEn4Tq5rb4ZhlpRjBp-4" vertex="1">
                    &#xa;                    &#xa;&#xa;
                    <mxGeometry y="64" width="140" height="20" as="geometry"/>
                    &#xa;                    &#xa;&#xa;
                </mxCell>
                &#xa;                &#xa;&#xa;
            </root>
            &#xa;            &#xa;&#xa;
        </mxGraphModel>
    </diagram>
    <diagram id="Id7u-Dna1ZlADQSebyr4" name="Entity Relation">
        <mxGraphModel dx="531" dy="557" grid="1" gridSize="10" guides="1" tooltips="1" connect="1" arrows="1" fold="1" page="1" pageScale="1" pageWidth="827" pageHeight="1169" math="0" shadow="0">
            &#xa;            &#xa;            &#xa;            &#xa;&#xa;&#xa;&#xa;
            <root>
                &#xa;                &#xa;                &#xa;                &#xa;&#xa;&#xa;&#xa;
                <mxCell id="Ztn2-piufcCU1WxKhwsp-0"/>
                &#xa;                &#xa;                &#xa;                &#xa;&#xa;&#xa;&#xa;
                <mxCell id="Ztn2-piufcCU1WxKhwsp-1" parent="Ztn2-piufcCU1WxKhwsp-0"/>
                &#xa;                &#xa;                &#xa;                &#xa;&#xa;&#xa;&#xa;
                <mxCell id="Ztn2-piufcCU1WxKhwsp-3" value="repository owner interface" style="rounded=0;whiteSpace=wrap;html=1;fillColor=#f5f5f5;strokeColor=#666666;verticalAlign=middle;align=center;spacingLeft=5;spacing=8;spacingRight=5;fontColor=#333333;" parent="Ztn2-piufcCU1WxKhwsp-1" vertex="1">
                    &#xa;                    &#xa;                    &#xa;                    &#xa;&#xa;&#xa;&#xa;
                    <mxGeometry x="468" y="100" width="120" height="60" as="geometry"/>
                    &#xa;                    &#xa;                    &#xa;                    &#xa;&#xa;&#xa;&#xa;
                </mxCell>
                &#xa;                &#xa;                &#xa;                &#xa;&#xa;&#xa;&#xa;
                <mxCell id="Ztn2-piufcCU1WxKhwsp-2" value="profile owner interface" style="rounded=0;whiteSpace=wrap;html=1;fillColor=#f5f5f5;strokeColor=#666666;verticalAlign=middle;align=center;spacing=8;spacingLeft=5;spacingRight=5;fontColor=#333333;gradientColor=#ffffff;" parent="Ztn2-piufcCU1WxKhwsp-1" vertex="1">
                    &#xa;                    &#xa;                    &#xa;                    &#xa;&#xa;&#xa;&#xa;
                    <mxGeometry x="240" y="100" width="120" height="60" as="geometry"/>
                    &#xa;                    &#xa;                    &#xa;                    &#xa;&#xa;&#xa;&#xa;
                </mxCell>
                &#xa;                &#xa;                &#xa;                &#xa;&#xa;&#xa;&#xa;
                <mxCell id="Ztn2-piufcCU1WxKhwsp-5" value="user" style="rounded=1;whiteSpace=wrap;html=1;fillColor=#dae8fc;strokeColor=#6c8ebf;fontColor=#333333;glass=0;comic=0;shadow=0;" parent="Ztn2-piufcCU1WxKhwsp-1" vertex="1">
                    &#xa;                    &#xa;                    &#xa;                    &#xa;&#xa;&#xa;&#xa;
                    <mxGeometry x="240" y="280" width="120" height="60" as="geometry"/>
                    &#xa;                    &#xa;                    &#xa;                    &#xa;&#xa;&#xa;&#xa;
                </mxCell>
                &#xa;                &#xa;                &#xa;                &#xa;&#xa;&#xa;&#xa;
                <mxCell id="Ztn2-piufcCU1WxKhwsp-6" value="repository" style="rounded=1;whiteSpace=wrap;html=1;fillColor=#dae8fc;strokeColor=#6c8ebf;fontColor=#333333;glass=0;comic=0;shadow=0;" parent="Ztn2-piufcCU1WxKhwsp-1" vertex="1">
                    &#xa;                    &#xa;                    &#xa;                    &#xa;&#xa;&#xa;&#xa;
                    <mxGeometry x="344" y="420" width="120" height="60" as="geometry"/>
                    &#xa;                    &#xa;                    &#xa;                    &#xa;&#xa;&#xa;&#xa;
                </mxCell>
                &#xa;                &#xa;                &#xa;                &#xa;&#xa;&#xa;&#xa;
                <mxCell id="Ztn2-piufcCU1WxKhwsp-7" value="organization" style="rounded=1;whiteSpace=wrap;html=1;fillColor=#dae8fc;strokeColor=#6c8ebf;fontColor=#333333;glass=0;comic=0;shadow=0;" parent="Ztn2-piufcCU1WxKhwsp-1" vertex="1">
                    &#xa;                    &#xa;                    &#xa;                    &#xa;&#xa;&#xa;&#xa;
                    <mxGeometry x="468" y="280" width="120" height="60" as="geometry"/>
                    &#xa;                    &#xa;                    &#xa;                    &#xa;&#xa;&#xa;&#xa;
                </mxCell>
                &#xa;                &#xa;                &#xa;                &#xa;&#xa;&#xa;&#xa;
                <mxCell id="Ztn2-piufcCU1WxKhwsp-23" value="extends" style="endArrow=block;dashed=1;endFill=0;endSize=12;html=1;exitX=0.25;exitY=0;exitDx=0;exitDy=0;entryX=0.25;entryY=1;entryDx=0;entryDy=0;" parent="Ztn2-piufcCU1WxKhwsp-1" source="Ztn2-piufcCU1WxKhwsp-5" target="Ztn2-piufcCU1WxKhwsp-2" edge="1">
                    &#xa;                    &#xa;                    &#xa;                    &#xa;&#xa;&#xa;&#xa;
                    <mxGeometry width="160" relative="1" as="geometry">
                        &#xa;                        &#xa;                        &#xa;                        &#xa;&#xa;&#xa;&#xa;
                        <mxPoint x="130" y="200" as="sourcePoint"/>
                        &#xa;                        &#xa;                        &#xa;                        &#xa;&#xa;&#xa;&#xa;
                        <mxPoint x="290" y="200" as="targetPoint"/>
                        &#xa;                        &#xa;                        &#xa;                        &#xa;&#xa;&#xa;&#xa;
                    </mxGeometry>
                    &#xa;                    &#xa;                    &#xa;                    &#xa;&#xa;&#xa;&#xa;
                </mxCell>
                &#xa;                &#xa;                &#xa;                &#xa;&#xa;&#xa;&#xa;
                <mxCell id="Ztn2-piufcCU1WxKhwsp-24" value="extends" style="endArrow=block;dashed=1;endFill=0;endSize=12;html=1;entryX=0.75;entryY=1;entryDx=0;entryDy=0;exitX=0.25;exitY=0;exitDx=0;exitDy=0;" parent="Ztn2-piufcCU1WxKhwsp-1" source="Ztn2-piufcCU1WxKhwsp-7" target="Ztn2-piufcCU1WxKhwsp-2" edge="1">
                    &#xa;                    &#xa;                    &#xa;                    &#xa;&#xa;&#xa;&#xa;
                    <mxGeometry width="160" relative="1" as="geometry">
                        &#xa;                        &#xa;                        &#xa;                        &#xa;&#xa;&#xa;&#xa;
                        <mxPoint x="360" y="330" as="sourcePoint"/>
                        &#xa;                        &#xa;                        &#xa;                        &#xa;&#xa;&#xa;&#xa;
                        <mxPoint x="288.03999999999996" y="171.01999999999998" as="targetPoint"/>
                        &#xa;                        &#xa;                        &#xa;                        &#xa;&#xa;&#xa;&#xa;
                    </mxGeometry>
                    &#xa;                    &#xa;                    &#xa;                    &#xa;&#xa;&#xa;&#xa;
                </mxCell>
                &#xa;                &#xa;                &#xa;                &#xa;&#xa;&#xa;&#xa;
                <mxCell id="Ztn2-piufcCU1WxKhwsp-25" value="extends" style="endArrow=block;dashed=1;endFill=0;endSize=12;html=1;entryX=0.75;entryY=1;entryDx=0;entryDy=0;exitX=0.75;exitY=0;exitDx=0;exitDy=0;" parent="Ztn2-piufcCU1WxKhwsp-1" source="Ztn2-piufcCU1WxKhwsp-7" target="Ztn2-piufcCU1WxKhwsp-3" edge="1">
                    &#xa;                    &#xa;                    &#xa;                    &#xa;&#xa;&#xa;&#xa;
                    <mxGeometry width="160" relative="1" as="geometry">
                        &#xa;                        &#xa;                        &#xa;                        &#xa;&#xa;&#xa;&#xa;
                        <mxPoint x="408" y="350" as="sourcePoint"/>
                        &#xa;                        &#xa;                        &#xa;                        &#xa;&#xa;&#xa;&#xa;
                        <mxPoint x="378" y="170" as="targetPoint"/>
                        &#xa;                        &#xa;                        &#xa;                        &#xa;&#xa;&#xa;&#xa;
                    </mxGeometry>
                    &#xa;                    &#xa;                    &#xa;                    &#xa;&#xa;&#xa;&#xa;
                </mxCell>
                &#xa;                &#xa;                &#xa;                &#xa;&#xa;&#xa;&#xa;
                <mxCell id="Ztn2-piufcCU1WxKhwsp-26" value="extends" style="endArrow=block;dashed=1;endFill=0;endSize=12;html=1;entryX=0.25;entryY=1;entryDx=0;entryDy=0;exitX=0.75;exitY=0;exitDx=0;exitDy=0;" parent="Ztn2-piufcCU1WxKhwsp-1" source="Ztn2-piufcCU1WxKhwsp-5" target="Ztn2-piufcCU1WxKhwsp-3" edge="1">
                    &#xa;                    &#xa;                    &#xa;                    &#xa;&#xa;&#xa;&#xa;
                    <mxGeometry width="160" relative="1" as="geometry">
                        &#xa;                        &#xa;                        &#xa;                        &#xa;&#xa;&#xa;&#xa;
                        <mxPoint x="430" y="350" as="sourcePoint"/>
                        &#xa;                        &#xa;                        &#xa;                        &#xa;&#xa;&#xa;&#xa;
                        <mxPoint x="530" y="170" as="targetPoint"/>
                        &#xa;                        &#xa;                        &#xa;                        &#xa;&#xa;&#xa;&#xa;
                    </mxGeometry>
                    &#xa;                    &#xa;                    &#xa;                    &#xa;&#xa;&#xa;&#xa;
                </mxCell>
                &#xa;                &#xa;                &#xa;                &#xa;&#xa;&#xa;&#xa;
                <mxCell id="0_wY0z5D4qQR8ErYcfCx-0" value="has" style="edgeStyle=elbowEdgeStyle;fontSize=12;html=1;endArrow=ERzeroToMany;endFill=1;labelBackgroundColor=none;entryX=0;entryY=0.5;entryDx=0;entryDy=0;exitX=0.5;exitY=1;exitDx=0;exitDy=0;" edge="1" parent="Ztn2-piufcCU1WxKhwsp-1" source="Ztn2-piufcCU1WxKhwsp-5" target="Ztn2-piufcCU1WxKhwsp-6">
                    &#xa;                    &#xa;                    &#xa;                    &#xa;&#xa;&#xa;&#xa;
                    <mxGeometry x="0.6883" y="90" width="100" height="100" relative="1" as="geometry">
                        &#xa;                        &#xa;                        &#xa;                        &#xa;&#xa;&#xa;&#xa;
                        <mxPoint x="190" y="390" as="sourcePoint"/>
                        &#xa;                        &#xa;                        &#xa;                        &#xa;&#xa;&#xa;&#xa;
                        <mxPoint x="290" y="370" as="targetPoint"/>
                        &#xa;                        &#xa;                        &#xa;                        &#xa;&#xa;&#xa;&#xa;
                        <Array as="points">
                            &#xa;                            &#xa;                            &#xa;                            &#xa;&#xa;&#xa;&#xa;
                            <mxPoint x="300" y="400"/>
                            &#xa;                            &#xa;                            &#xa;                            &#xa;&#xa;&#xa;&#xa;
                        </Array>
                        &#xa;                        &#xa;                        &#xa;                        &#xa;&#xa;&#xa;&#xa;
                        <mxPoint as="offset"/>
                        &#xa;                        &#xa;                        &#xa;                        &#xa;&#xa;&#xa;&#xa;
                    </mxGeometry>
                    &#xa;                    &#xa;                    &#xa;                    &#xa;&#xa;&#xa;&#xa;
                </mxCell>
                &#xa;                &#xa;                &#xa;                &#xa;&#xa;&#xa;&#xa;
                <mxCell id="0_wY0z5D4qQR8ErYcfCx-2" value="has" style="edgeStyle=elbowEdgeStyle;fontSize=12;html=1;endArrow=ERzeroToMany;endFill=1;labelBackgroundColor=none;exitX=0.5;exitY=1;exitDx=0;exitDy=0;entryX=1;entryY=0.5;entryDx=0;entryDy=0;" edge="1" parent="Ztn2-piufcCU1WxKhwsp-1" source="Ztn2-piufcCU1WxKhwsp-7" target="Ztn2-piufcCU1WxKhwsp-6">
                    &#xa;                    &#xa;                    &#xa;                    &#xa;&#xa;&#xa;&#xa;
                    <mxGeometry x="-0.7701" y="22" width="100" height="100" relative="1" as="geometry">
                        &#xa;                        &#xa;                        &#xa;                        &#xa;&#xa;&#xa;&#xa;
                        <mxPoint x="510" y="500" as="sourcePoint"/>
                        &#xa;                        &#xa;                        &#xa;                        &#xa;&#xa;&#xa;&#xa;
                        <mxPoint x="610" y="400" as="targetPoint"/>
                        &#xa;                        &#xa;                        &#xa;                        &#xa;&#xa;&#xa;&#xa;
                        <Array as="points">
                            &#xa;                            &#xa;                            &#xa;                            &#xa;&#xa;&#xa;&#xa;
                            <mxPoint x="528" y="390"/>
                            &#xa;                            &#xa;                            &#xa;                            &#xa;&#xa;&#xa;&#xa;
                        </Array>
                        &#xa;                        &#xa;                        &#xa;                        &#xa;&#xa;&#xa;&#xa;
                        <mxPoint as="offset"/>
                        &#xa;                        &#xa;                        &#xa;                        &#xa;&#xa;&#xa;&#xa;
                    </mxGeometry>
                    &#xa;                    &#xa;                    &#xa;                    &#xa;&#xa;&#xa;&#xa;
                </mxCell>
                &#xa;                &#xa;                &#xa;                &#xa;&#xa;&#xa;&#xa;
                <mxCell id="0_wY0z5D4qQR8ErYcfCx-3" value="has" style="fontSize=12;html=1;endArrow=ERzeroToMany;endFill=1;labelBackgroundColor=none;exitX=0;exitY=0.5;exitDx=0;exitDy=0;entryX=1;entryY=0.5;entryDx=0;entryDy=0;" edge="1" parent="Ztn2-piufcCU1WxKhwsp-1" source="Ztn2-piufcCU1WxKhwsp-7" target="Ztn2-piufcCU1WxKhwsp-5">
                    &#xa;                    &#xa;                    &#xa;                    &#xa;&#xa;&#xa;&#xa;
                    <mxGeometry x="-0.4815" y="-20" width="100" height="100" relative="1" as="geometry">
                        &#xa;                        &#xa;                        &#xa;                        &#xa;&#xa;&#xa;&#xa;
                        <mxPoint x="170" y="490" as="sourcePoint"/>
                        &#xa;                        &#xa;                        &#xa;                        &#xa;&#xa;&#xa;&#xa;
                        <mxPoint x="270" y="390" as="targetPoint"/>
                        &#xa;                        &#xa;                        &#xa;                        &#xa;&#xa;&#xa;&#xa;
                        <mxPoint as="offset"/>
                        &#xa;                        &#xa;                        &#xa;                        &#xa;&#xa;&#xa;&#xa;
                    </mxGeometry>
                    &#xa;                    &#xa;                    &#xa;                    &#xa;&#xa;&#xa;&#xa;
                </mxCell>
                &#xa;                &#xa;                &#xa;                &#xa;&#xa;&#xa;&#xa;
            </root>
            &#xa;            &#xa;            &#xa;            &#xa;&#xa;&#xa;&#xa;
        </mxGraphModel>
    </diagram>
</mxfile>
